<?xml version="1.0" encoding="UTF-8" standalone="no"?>
<!-- Created with Inkscape (http://www.inkscape.org/) -->

<svg
   width="210mm"
   height="297mm"
   viewBox="0 0 210 297"
   version="1.1"
   id="svg1"
   xml:space="preserve"
   inkscape:version="1.4 (86a8ad7, 2024-10-11)"
   sodipodi:docname="logo.svg"
   xmlns:inkscape="http://www.inkscape.org/namespaces/inkscape"
   xmlns:sodipodi="http://sodipodi.sourceforge.net/DTD/sodipodi-0.dtd"
   xmlns="http://www.w3.org/2000/svg"
   xmlns:svg="http://www.w3.org/2000/svg"><sodipodi:namedview
     id="namedview1"
     pagecolor="#505050"
     bordercolor="#eeeeee"
     borderopacity="1"
     inkscape:showpageshadow="0"
     inkscape:pageopacity="0"
     inkscape:pagecheckerboard="0"
     inkscape:deskcolor="#505050"
     inkscape:document-units="mm"
     inkscape:zoom="1.308663"
     inkscape:cx="396.58796"
     inkscape:cy="561.25984"
     inkscape:window-width="3072"
     inkscape:window-height="1796"
     inkscape:window-x="-12"
     inkscape:window-y="-12"
     inkscape:window-maximized="1"
     inkscape:current-layer="layer1" /><defs
     id="defs1" /><g
     inkscape:label="Layer 1"
     inkscape:groupmode="layer"
     id="layer1"><path
       style="fill:#ffffff;fill-opacity:1"
       d="M 102.68948,236.88426 C 99.841697,235.69755 98.874357,234.29717 96.103,227.34925 90.423903,213.11152 89.760536,212.71889 71.378922,212.71584 58.760707,212.71384 56.336493,212.5742 52.576501,211.63359 38.373024,208.08039 27.237151,195.23751 25.562303,180.4784 25.01285,175.63651 25.34434,91.858806 25.922594,89.422014 29.621851,73.833161 40.789633,62.722635 55.297571,60.19764 c 3.599801,-0.626518 95.136179,-0.617552 98.872879,0.0097 15.01958,2.52116 27.22277,14.630326 29.9845,29.753456 0.77094,4.22161 0.74122,89.731744 -0.0324,93.388324 -3.01548,14.25196 -13.47822,25.19811 -27.1655,28.42063 -0.88849,0.20919 -1.97263,0.46464 -2.40919,0.56769 -0.43657,0.10304 -7.22969,0.26055 -15.09584,0.35003 -19.39753,0.22065 -20.27607,0.69178 -24.97213,13.39185 -2.81314,7.6079 -3.73303,9.15187 -6.21298,10.4281 -1.64094,0.84445 -4.06262,1.00809 -5.57738,0.37686 z m 9.78958,-45.86832 c 21.72715,-2.42992 42.83749,-15.34895 50.0865,-30.65175 5.58021,-11.77995 -5.93216,-17.87083 -13.11908,-6.94094 -19.73249,30.00923 -68.57202,29.73363 -88.824686,-0.50124 -3.983495,-5.94689 -8.09076,-7.04528 -12.275544,-3.2828 -10.33208,9.28943 12.495754,32.83308 38.201936,39.39984 7.934373,2.02687 18.370154,2.82247 25.930874,1.97689 z m -1.49496,-41.40837 c 0.9431,-0.79357 1.03717,-1.16166 1.33931,-5.2408 0.27158,-3.66663 0.58623,-4.18629 3.33065,-5.50069 3.06551,-1.46819 3.66612,-1.27712 7.73514,2.46083 3.04136,2.7939 4.10492,2.59712 8.71179,-1.61184 5.09349,-4.65354 5.32169,-5.86471 1.80866,-9.5991 -2.84236,-3.02144 -3.11431,-3.7449 -2.36109,-6.28125 0.8567,-2.88482 1.90902,-3.55264 5.87435,-3.72794 5.54206,-0.24501 5.88303,-0.70858 5.87429,-7.9862 -0.009,-7.26209 -0.43794,-7.8819 -5.4584,-7.8819 -6.59966,0 -8.79323,-5.225014 -4.21243,-10.033854 3.49244,-3.6663 3.42706,-4.947848 -0.45604,-8.939009 -5.3072,-5.454889 -6.51018,-5.624157 -10.99558,-1.547153 -2.89259,2.629221 -4.06731,2.86718 -6.93045,1.403871 -2.46258,-1.258586 -2.64872,-1.620465 -3.02456,-5.879925 -0.48343,-5.478872 -0.70531,-5.644118 -7.62053,-5.675466 -6.702183,-0.03038 -7.034473,0.228471 -7.333383,5.712756 -0.20311,3.726542 -0.38791,4.140303 -2.45537,5.497392 -2.766205,1.815753 -4.344362,1.629222 -7.200304,-0.851041 -4.388221,-3.810982 -5.225806,-3.948483 -8.024053,-1.317258 -7.702052,7.24233 -7.651484,7.056481 -3.191349,11.728893 1.9907,2.08545 2.217651,2.63767 2.012744,4.89742 -0.331929,3.660574 -1.779953,4.784894 -6.430293,4.992804 -5.366429,0.23992 -5.76205,0.84466 -5.622275,8.59415 0.12127,6.72349 0.362684,7.01435 6.039756,7.27663 4.088755,0.18891 4.853586,0.64581 5.999141,3.58382 0.920009,2.35955 0.367444,3.9304 -2.299518,6.53714 -3.862546,3.77533 -3.683436,4.70798 1.913057,9.96152 4.283576,4.02107 5.226682,4.06685 8.958892,0.43487 2.987864,-2.90763 4.001033,-3.12304 7.142969,-1.5187 2.741123,1.39967 2.925303,1.72933 3.167883,5.66991 0.34326,5.57611 0.21571,5.48353 7.574883,5.49814 5.32956,0.0106 5.33869,0.01 6.13211,-0.65802 z m -9.9847,-22.76832 c -11.229265,-3.01993 -14.525937,-17.29202 -5.849722,-25.32486 9.536702,-8.829534 24.870002,-2.093004 24.870002,10.92638 0,9.7936 -9.4743,16.96571 -19.02028,14.39848 z m -44.92401,9.13035 c 4.893138,-1.35875 5.772419,-8.5715 1.40696,-11.54132 -4.660757,-3.1707 -10.928546,1.10647 -9.763169,6.66244 0.817411,3.89703 4.386863,5.9811 8.356209,4.87888 z m 102.8586,-0.0183 c 4.42376,-1.32539 5.62008,-7.28652 2.15726,-10.74935 -4.13348,-4.13347 -10.97406,-0.82935 -10.59538,5.11775 0.26992,4.23897 4.24081,6.88915 8.43812,5.6316 z M 57.194151,106.34731 c 5.486789,-3.39102 3.188101,-11.898214 -3.21496,-11.898214 -5.381597,0 -8.437367,5.614074 -5.507316,10.118054 1.705117,2.62106 5.957433,3.48893 8.722276,1.78016 z m 102.420469,0.10891 c 5.81363,-2.74377 4.02991,-11.548494 -2.42281,-11.959374 -3.94822,-0.25141 -6.73595,2.41489 -6.74246,6.448744 -0.008,4.95517 4.54362,7.69184 9.16527,5.51063 z"
       id="path1" /></g></svg>
