<?xml version="1.0" encoding="UTF-8" standalone="no"?>
<!-- Created with Inkscape (http://www.inkscape.org/) -->

<svg
   width="512mm"
   height="512mm"
   viewBox="0 0 512 512"
   version="1.1"
   id="svg1"
   xml:space="preserve"
   inkscape:version="1.4 (86a8ad7, 2024-10-11)"
   sodipodi:docname="sprocket.svg"
   xmlns:inkscape="http://www.inkscape.org/namespaces/inkscape"
   xmlns:sodipodi="http://sodipodi.sourceforge.net/DTD/sodipodi-0.dtd"
   xmlns="http://www.w3.org/2000/svg"
   xmlns:svg="http://www.w3.org/2000/svg"><sodipodi:namedview
     id="namedview1"
     pagecolor="#505050"
     bordercolor="#eeeeee"
     borderopacity="1"
     inkscape:showpageshadow="0"
     inkscape:pageopacity="0"
     inkscape:pagecheckerboard="0"
     inkscape:deskcolor="#505050"
     inkscape:document-units="mm"
     inkscape:zoom="0.46268224"
     inkscape:cx="880.73404"
     inkscape:cy="958.54122"
     inkscape:window-width="3072"
     inkscape:window-height="1796"
     inkscape:window-x="-12"
     inkscape:window-y="-12"
     inkscape:window-maximized="1"
     inkscape:current-layer="layer1" /><defs
     id="defs1" /><g
     inkscape:label="Layer 1"
     inkscape:groupmode="layer"
     id="layer1"><path
       style="fill:#ffffff;fill-opacity:1;stroke-width:2.88393"
       d="m 249.33661,510.89418 c -8.21281,-3.42239 -11.00255,-7.461 -18.99495,-27.49832 -16.37813,-41.06064 -18.29123,-42.19296 -71.30256,-42.20176 -36.39007,-0.005 -43.38134,-0.40848 -54.22489,-3.12114 C 63.852342,427.82578 31.737243,390.78779 26.907097,348.22352 25.322512,334.25984 26.278505,92.650657 27.94615,85.623115 38.614556,40.665928 70.821678,8.6239231 112.66158,1.3420101 c 10.38158,-1.80683502 274.36626,-1.78097802 285.14265,0.02797 43.31545,7.270854 78.50861,42.1928589 86.47326,85.8069439 2.22333,12.174829 2.13762,258.780226 -0.0935,269.325556 -8.69644,41.10168 -38.87026,72.66964 -78.34345,81.96317 -2.56234,0.60328 -5.68893,1.33998 -6.94794,1.63718 -1.25903,0.29715 -20.84993,0.7514 -43.53538,1.00945 -55.94115,0.63635 -58.4748,1.99505 -72.01791,38.62119 -8.11291,21.94066 -10.7658,26.39336 -17.91782,30.07393 -4.73235,2.43533 -11.71631,2.90726 -16.08478,1.08683 z M 277.5691,378.61307 c 62.65962,-7.00773 123.5404,-44.26532 144.44606,-88.39756 16.09294,-33.97257 -17.10795,-51.53825 -37.83455,-20.0172 -56.90715,86.54458 -197.75702,85.74977 -256.16433,-1.44553 -11.48813,-17.15043 -23.3332,-20.31812 -35.401834,-9.46738 -29.797014,26.79008 36.036904,94.68837 110.171784,113.62645 22.88219,5.84536 52.97827,8.13982 74.78287,5.70122 z m -4.31136,-119.41892 c 2.71984,-2.2886 2.99112,-3.35015 3.86248,-15.11411 0.78322,-10.5743 1.69065,-12.07297 9.60537,-15.86361 8.84072,-4.23416 10.57283,-3.68313 22.30761,7.09686 8.77107,8.05742 11.8383,7.48992 25.12421,-4.64843 14.68928,-13.42049 15.34739,-16.91343 5.21605,-27.68316 -8.19717,-8.71362 -8.98146,-10.80003 -6.80922,-18.11469 2.47066,-8.31963 5.50548,-10.24557 16.94122,-10.75112 15.98292,-0.70659 16.96626,-2.0435 16.94106,-23.03166 -0.026,-20.94337 -1.26299,-22.73086 -15.74166,-22.73086 -19.03297,0 -25.35908,-15.06858 -12.14836,-28.936953 10.07196,-10.573356 9.88341,-14.269253 -1.31519,-25.779495 -15.3056,-15.731527 -18.77491,-16.219682 -31.7105,-4.461883 -8.34203,7.582495 -11.72984,8.268752 -19.98695,4.048671 -7.10191,-3.629674 -7.63873,-4.673312 -8.72262,-16.957308 -1.39418,-15.800687 -2.03407,-16.277248 -21.97709,-16.367655 -19.32864,-0.08765 -20.28695,0.658893 -21.14898,16.475197 -0.58575,10.747093 -1.1187,11.940356 -7.08112,15.854111 -7.97755,5.236508 -12.52884,4.698565 -20.76518,-2.454346 C 193.19354,58.78309 190.778,58.386555 182.70805,65.974824 c -22.21219,20.886384 -22.06636,20.350407 -9.20364,33.825331 5.74104,6.014295 6.39556,7.606855 5.80462,14.123825 -0.95726,10.55684 -5.13326,13.7993 -18.54453,14.3989 -15.47642,0.69191 -16.61736,2.43594 -16.21426,24.78494 0.34974,19.3901 1.04596,20.22891 17.41824,20.98531 11.7917,0.5448 13.99742,1.86247 17.30112,10.3355 2.65324,6.80478 1.05969,11.335 -6.63165,18.85266 -11.13932,10.8878 -10.62278,13.5775 5.51712,28.72834 12.35354,11.59649 15.0734,11.72852 25.83684,1.25414 8.61679,-8.38541 11.53871,-9.00664 20.59983,-4.37982 7.90521,4.03654 8.43638,4.98727 9.13596,16.35163 0.98994,16.08112 0.6221,15.81412 21.84545,15.85626 15.37009,0.0305 15.39642,0.0288 17.68459,-1.89769 z m -28.7952,-65.66228 c -32.38444,-8.70928 -41.89181,-49.86901 -16.87019,-73.03517 27.50319,-25.463775 71.72338,-6.03608 71.72338,31.51094 0,28.24407 -27.32323,48.92795 -54.85319,41.52423 z m -129.55778,26.33131 c 14.11147,-3.91854 16.64726,-24.71963 4.05758,-33.28439 -13.44131,-9.14407 -31.517186,3.19099 -28.156318,19.21403 2.357358,11.23877 12.651408,17.24909 24.098738,14.07036 z m 296.63719,-0.0528 c 12.75782,-3.82234 16.20793,-21.01383 6.2214,-31.0004 -11.92068,-11.92064 -31.64845,-2.39179 -30.55636,14.75924 0.77843,12.2249 12.23021,19.86784 24.33496,16.24116 z M 118.13119,134.43451 c 15.82352,-9.77947 9.19427,-34.31363 -9.27173,-34.31363 -15.520158,0 -24.332787,16.1906 -15.88272,29.17977 4.917438,7.55896 17.18083,10.06184 25.15445,5.13386 z m 295.37366,0.31409 c 16.76611,-7.91284 11.62197,-33.30507 -6.98722,-34.49001 -11.3864,-0.725058 -19.42603,6.96437 -19.44481,18.59773 -0.0231,14.29037 13.1035,22.18274 26.43203,15.89228 z"
       id="path1" /></g></svg>
