<?xml version="1.0" encoding="UTF-8" standalone="no"?>
<!-- Created with Inkscape (http://www.inkscape.org/) -->

<svg
   width="1920"
   height="1080"
   viewBox="0 0 1920 1080"
   version="1.1"
   id="svg1"
   xml:space="preserve"
   inkscape:version="1.4 (86a8ad7, 2024-10-11)"
   sodipodi:docname="branding_demo.svg"
   xmlns:inkscape="http://www.inkscape.org/namespaces/inkscape"
   xmlns:sodipodi="http://sodipodi.sourceforge.net/DTD/sodipodi-0.dtd"
   xmlns:xlink="http://www.w3.org/1999/xlink"
   xmlns="http://www.w3.org/2000/svg"
   xmlns:svg="http://www.w3.org/2000/svg"><sodipodi:namedview
     id="namedview1"
     pagecolor="#505050"
     bordercolor="#eeeeee"
     borderopacity="1"
     inkscape:showpageshadow="0"
     inkscape:pageopacity="0"
     inkscape:pagecheckerboard="0"
     inkscape:deskcolor="#505050"
     inkscape:document-units="px"
     inkscape:zoom="0.68009259"
     inkscape:cx="731.51804"
     inkscape:cy="765.33697"
     inkscape:window-width="3072"
     inkscape:window-height="1796"
     inkscape:window-x="-12"
     inkscape:window-y="-12"
     inkscape:window-maximized="1"
     inkscape:current-layer="layer1" /><defs
     id="defs1"><linearGradient
       id="linearGradient4"
       inkscape:collect="always"
       inkscape:label="OpenGM Gradient"><stop
         style="stop-color:#a1e98d;stop-opacity:1;"
         offset="0"
         id="stop4" /><stop
         style="stop-color:#05af76;stop-opacity:1;"
         offset="0.44913614"
         id="stop7" /><stop
         style="stop-color:#0189d6;stop-opacity:1;"
         offset="0.83418918"
         id="stop6" /><stop
         style="stop-color:#1fa7de;stop-opacity:1;"
         offset="1"
         id="stop5" /></linearGradient><linearGradient
       inkscape:collect="always"
       xlink:href="#linearGradient4"
       id="linearGradient5"
       x1="93.434853"
       y1="93.43486"
       x2="418.56512"
       y2="418.56516"
       gradientUnits="userSpaceOnUse" /><linearGradient
       inkscape:collect="always"
       xlink:href="#linearGradient4"
       id="linearGradient3"
       x1="526.51495"
       y1="212.55873"
       x2="595.96368"
       y2="282.00745"
       gradientUnits="userSpaceOnUse"
       gradientTransform="translate(1211.4716,198.68634)" /><linearGradient
       inkscape:collect="always"
       xlink:href="#linearGradient4"
       id="linearGradient9"
       x1="134.05566"
       y1="546.82043"
       x2="218.82179"
       y2="631.58655"
       gradientUnits="userSpaceOnUse"
       gradientTransform="translate(1032.5204,-138.46064)" /><linearGradient
       inkscape:collect="always"
       xlink:href="#linearGradient4"
       id="linearGradient3-3"
       x1="17.555666"
       y1="24.616936"
       x2="102.32179"
       y2="109.38306"
       gradientUnits="userSpaceOnUse"
       gradientTransform="translate(1229.4195,562.25715)" /><linearGradient
       inkscape:collect="always"
       xlink:href="#linearGradient4"
       id="linearGradient9-2"
       x1="396.08838"
       y1="10.316708"
       x2="492.11267"
       y2="106.34103"
       gradientUnits="userSpaceOnUse"
       gradientTransform="translate(1229.4195,562.25715)" /><filter
       style="color-interpolation-filters:sRGB;"
       inkscape:label="Drop Shadow"
       id="filter3"
       x="-0.097744399"
       y="-0.13739961"
       width="1.2769425"
       height="1.3892989"><feFlood
         result="flood"
         in="SourceGraphic"
         flood-opacity="0.498039"
         flood-color="rgb(0,0,0)"
         id="feFlood2" /><feGaussianBlur
         result="blur"
         in="SourceGraphic"
         stdDeviation="3.000000"
         id="feGaussianBlur2" /><feOffset
         result="offset"
         in="blur"
         dx="6.000000"
         dy="6.000000"
         id="feOffset2" /><feComposite
         result="comp1"
         operator="in"
         in="flood"
         in2="offset"
         id="feComposite2" /><feComposite
         result="fbSourceGraphic"
         operator="over"
         in="SourceGraphic"
         in2="comp1"
         id="feComposite3" /><feColorMatrix
         result="fbSourceGraphicAlpha"
         in="fbSourceGraphic"
         values="0 0 0 -1 0 0 0 0 -1 0 0 0 0 -1 0 0 0 0 1 0"
         id="feColorMatrix46" /><feFlood
         id="feFlood46"
         result="flood"
         in="fbSourceGraphic"
         flood-opacity="0.070588"
         flood-color="rgb(0,0,0)" /><feGaussianBlur
         id="feGaussianBlur46"
         result="blur"
         in="fbSourceGraphic"
         stdDeviation="1.000000" /><feOffset
         id="feOffset46"
         result="offset"
         in="blur"
         dx="2.000000"
         dy="2.000000" /><feComposite
         id="feComposite46"
         result="comp1"
         operator="in"
         in="flood"
         in2="offset" /><feComposite
         id="feComposite47"
         result="comp2"
         operator="over"
         in="fbSourceGraphic"
         in2="comp1" /></filter><filter
       style="color-interpolation-filters:sRGB;"
       inkscape:label="Drop Shadow"
       id="filter14"
       x="-0.031822367"
       y="-0.055096107"
       width="1.0901634"
       height="1.1561056"><feFlood
         result="flood"
         in="SourceGraphic"
         flood-opacity="0.152941"
         flood-color="rgb(0,0,0)"
         id="feFlood13" /><feGaussianBlur
         result="blur"
         in="SourceGraphic"
         stdDeviation="2.000000"
         id="feGaussianBlur13" /><feOffset
         result="offset"
         in="blur"
         dx="6.000000"
         dy="6.000000"
         id="feOffset13" /><feComposite
         result="comp1"
         operator="in"
         in="flood"
         in2="offset"
         id="feComposite13" /><feComposite
         result="fbSourceGraphic"
         operator="over"
         in="SourceGraphic"
         in2="comp1"
         id="feComposite14" /><feColorMatrix
         result="fbSourceGraphicAlpha"
         in="fbSourceGraphic"
         values="0 0 0 -1 0 0 0 0 -1 0 0 0 0 -1 0 0 0 0 1 0"
         id="feColorMatrix14" /><feFlood
         id="feFlood14"
         result="flood"
         in="fbSourceGraphic"
         flood-opacity="0.152941"
         flood-color="rgb(0,0,0)" /><feGaussianBlur
         id="feGaussianBlur14"
         result="blur"
         in="fbSourceGraphic"
         stdDeviation="2.000000" /><feOffset
         id="feOffset14"
         result="offset"
         in="blur"
         dx="6.000000"
         dy="6.000000" /><feComposite
         id="feComposite15"
         result="comp1"
         operator="in"
         in="flood"
         in2="offset" /><feComposite
         id="feComposite16"
         result="fbSourceGraphic"
         operator="over"
         in="fbSourceGraphic"
         in2="comp1" /><feColorMatrix
         result="fbSourceGraphicAlpha"
         in="fbSourceGraphic"
         values="0 0 0 -1 0 0 0 0 -1 0 0 0 0 -1 0 0 0 0 1 0"
         id="feColorMatrix16" /><feFlood
         id="feFlood16"
         result="flood"
         in="fbSourceGraphic"
         flood-opacity="0.152941"
         flood-color="rgb(0,0,0)" /><feGaussianBlur
         id="feGaussianBlur16"
         result="blur"
         in="fbSourceGraphic"
         stdDeviation="2.000000" /><feOffset
         id="feOffset16"
         result="offset"
         in="blur"
         dx="6.000000"
         dy="6.000000" /><feComposite
         id="feComposite17"
         result="comp1"
         operator="in"
         in="flood"
         in2="offset" /><feComposite
         id="feComposite18"
         result="fbSourceGraphic"
         operator="over"
         in="fbSourceGraphic"
         in2="comp1" /><feColorMatrix
         result="fbSourceGraphicAlpha"
         in="fbSourceGraphic"
         values="0 0 0 -1 0 0 0 0 -1 0 0 0 0 -1 0 0 0 0 1 0"
         id="feColorMatrix18" /><feFlood
         id="feFlood18"
         result="flood"
         in="fbSourceGraphic"
         flood-opacity="0.152941"
         flood-color="rgb(0,0,0)" /><feGaussianBlur
         id="feGaussianBlur18"
         result="blur"
         in="fbSourceGraphic"
         stdDeviation="2.000000" /><feOffset
         id="feOffset18"
         result="offset"
         in="blur"
         dx="6.000000"
         dy="6.000000" /><feComposite
         id="feComposite19"
         result="comp1"
         operator="in"
         in="flood"
         in2="offset" /><feComposite
         id="feComposite20"
         result="fbSourceGraphic"
         operator="over"
         in="fbSourceGraphic"
         in2="comp1" /><feColorMatrix
         result="fbSourceGraphicAlpha"
         in="fbSourceGraphic"
         values="0 0 0 -1 0 0 0 0 -1 0 0 0 0 -1 0 0 0 0 1 0"
         id="feColorMatrix20" /><feFlood
         id="feFlood20"
         result="flood"
         in="fbSourceGraphic"
         flood-opacity="0.152941"
         flood-color="rgb(0,0,0)" /><feGaussianBlur
         id="feGaussianBlur20"
         result="blur"
         in="fbSourceGraphic"
         stdDeviation="2.000000" /><feOffset
         id="feOffset20"
         result="offset"
         in="blur"
         dx="3.000000"
         dy="3.000000" /><feComposite
         id="feComposite21"
         result="comp1"
         operator="in"
         in="flood"
         in2="offset" /><feComposite
         id="feComposite22"
         result="fbSourceGraphic"
         operator="over"
         in="fbSourceGraphic"
         in2="comp1" /><feColorMatrix
         result="fbSourceGraphicAlpha"
         in="fbSourceGraphic"
         values="0 0 0 -1 0 0 0 0 -1 0 0 0 0 -1 0 0 0 0 1 0"
         id="feColorMatrix22" /><feFlood
         id="feFlood22"
         result="flood"
         in="fbSourceGraphic"
         flood-opacity="0.152941"
         flood-color="rgb(0,0,0)" /><feGaussianBlur
         id="feGaussianBlur22"
         result="blur"
         in="fbSourceGraphic"
         stdDeviation="2.000000" /><feOffset
         id="feOffset22"
         result="offset"
         in="blur"
         dx="3.000000"
         dy="3.000000" /><feComposite
         id="feComposite23"
         result="comp1"
         operator="in"
         in="flood"
         in2="offset" /><feComposite
         id="feComposite24"
         result="fbSourceGraphic"
         operator="over"
         in="fbSourceGraphic"
         in2="comp1" /><feColorMatrix
         result="fbSourceGraphicAlpha"
         in="fbSourceGraphic"
         values="0 0 0 -1 0 0 0 0 -1 0 0 0 0 -1 0 0 0 0 1 0"
         id="feColorMatrix24" /><feFlood
         id="feFlood24"
         result="flood"
         in="fbSourceGraphic"
         flood-opacity="0.152941"
         flood-color="rgb(0,0,0)" /><feGaussianBlur
         id="feGaussianBlur24"
         result="blur"
         in="fbSourceGraphic"
         stdDeviation="2.000000" /><feOffset
         id="feOffset24"
         result="offset"
         in="blur"
         dx="3.000000"
         dy="3.000000" /><feComposite
         id="feComposite25"
         result="comp1"
         operator="in"
         in="flood"
         in2="offset" /><feComposite
         id="feComposite26"
         result="fbSourceGraphic"
         operator="over"
         in="fbSourceGraphic"
         in2="comp1" /><feColorMatrix
         result="fbSourceGraphicAlpha"
         in="fbSourceGraphic"
         values="0 0 0 -1 0 0 0 0 -1 0 0 0 0 -1 0 0 0 0 1 0"
         id="feColorMatrix26" /><feFlood
         id="feFlood26"
         result="flood"
         in="fbSourceGraphic"
         flood-opacity="0.152941"
         flood-color="rgb(0,0,0)" /><feGaussianBlur
         id="feGaussianBlur26"
         result="blur"
         in="fbSourceGraphic"
         stdDeviation="2.000000" /><feOffset
         id="feOffset26"
         result="offset"
         in="blur"
         dx="3.000000"
         dy="3.000000" /><feComposite
         id="feComposite27"
         result="comp1"
         operator="in"
         in="flood"
         in2="offset" /><feComposite
         id="feComposite28"
         result="fbSourceGraphic"
         operator="over"
         in="fbSourceGraphic"
         in2="comp1" /><feColorMatrix
         result="fbSourceGraphicAlpha"
         in="fbSourceGraphic"
         values="0 0 0 -1 0 0 0 0 -1 0 0 0 0 -1 0 0 0 0 1 0"
         id="feColorMatrix28" /><feFlood
         id="feFlood28"
         result="flood"
         in="fbSourceGraphic"
         flood-opacity="0.152941"
         flood-color="rgb(0,0,0)" /><feGaussianBlur
         id="feGaussianBlur28"
         result="blur"
         in="fbSourceGraphic"
         stdDeviation="2.000000" /><feOffset
         id="feOffset28"
         result="offset"
         in="blur"
         dx="3.000000"
         dy="3.000000" /><feComposite
         id="feComposite29"
         result="comp1"
         operator="in"
         in="flood"
         in2="offset" /><feComposite
         id="feComposite30"
         result="fbSourceGraphic"
         operator="over"
         in="fbSourceGraphic"
         in2="comp1" /><feColorMatrix
         result="fbSourceGraphicAlpha"
         in="fbSourceGraphic"
         values="0 0 0 -1 0 0 0 0 -1 0 0 0 0 -1 0 0 0 0 1 0"
         id="feColorMatrix30" /><feFlood
         id="feFlood30"
         result="flood"
         in="fbSourceGraphic"
         flood-opacity="0.152941"
         flood-color="rgb(0,0,0)" /><feGaussianBlur
         id="feGaussianBlur30"
         result="blur"
         in="fbSourceGraphic"
         stdDeviation="2.000000" /><feOffset
         id="feOffset30"
         result="offset"
         in="blur"
         dx="3.000000"
         dy="3.000000" /><feComposite
         id="feComposite31"
         result="comp1"
         operator="in"
         in="flood"
         in2="offset" /><feComposite
         id="feComposite32"
         result="fbSourceGraphic"
         operator="over"
         in="fbSourceGraphic"
         in2="comp1" /><feColorMatrix
         result="fbSourceGraphicAlpha"
         in="fbSourceGraphic"
         values="0 0 0 -1 0 0 0 0 -1 0 0 0 0 -1 0 0 0 0 1 0"
         id="feColorMatrix32" /><feFlood
         id="feFlood32"
         result="flood"
         in="fbSourceGraphic"
         flood-opacity="0.152941"
         flood-color="rgb(0,0,0)" /><feGaussianBlur
         id="feGaussianBlur32"
         result="blur"
         in="fbSourceGraphic"
         stdDeviation="2.000000" /><feOffset
         id="feOffset32"
         result="offset"
         in="blur"
         dx="3.000000"
         dy="3.000000" /><feComposite
         id="feComposite33"
         result="comp1"
         operator="in"
         in="flood"
         in2="offset" /><feComposite
         id="feComposite34"
         result="fbSourceGraphic"
         operator="over"
         in="fbSourceGraphic"
         in2="comp1" /><feColorMatrix
         result="fbSourceGraphicAlpha"
         in="fbSourceGraphic"
         values="0 0 0 -1 0 0 0 0 -1 0 0 0 0 -1 0 0 0 0 1 0"
         id="feColorMatrix34" /><feFlood
         id="feFlood34"
         result="flood"
         in="fbSourceGraphic"
         flood-opacity="0.152941"
         flood-color="rgb(0,0,0)" /><feGaussianBlur
         id="feGaussianBlur34"
         result="blur"
         in="fbSourceGraphic"
         stdDeviation="2.000000" /><feOffset
         id="feOffset34"
         result="offset"
         in="blur"
         dx="3.000000"
         dy="3.000000" /><feComposite
         id="feComposite35"
         result="comp1"
         operator="in"
         in="flood"
         in2="offset" /><feComposite
         id="feComposite36"
         result="comp2"
         operator="over"
         in="fbSourceGraphic"
         in2="comp1" /></filter><filter
       style="color-interpolation-filters:sRGB"
       inkscape:label="Drop Shadow"
       id="filter3-9"
       x="-0.0098160209"
       y="-0.030769231"
       width="1.0278121"
       height="1.0871795"><feFlood
         result="flood"
         in="SourceGraphic"
         flood-opacity="0.498039"
         flood-color="rgb(0,0,0)"
         id="feFlood2-2" /><feGaussianBlur
         result="blur"
         in="SourceGraphic"
         stdDeviation="3.000000"
         id="feGaussianBlur2-7" /><feOffset
         result="offset"
         in="blur"
         dx="6.000000"
         dy="6.000000"
         id="feOffset2-9" /><feComposite
         result="comp1"
         operator="in"
         in="flood"
         in2="offset"
         id="feComposite2-5" /><feComposite
         result="fbSourceGraphic"
         operator="over"
         in="SourceGraphic"
         in2="comp1"
         id="feComposite3-4" /><feColorMatrix
         result="fbSourceGraphicAlpha"
         in="fbSourceGraphic"
         values="0 0 0 -1 0 0 0 0 -1 0 0 0 0 -1 0 0 0 0 1 0"
         id="feColorMatrix46-3" /><feFlood
         id="feFlood46-1"
         result="flood"
         in="fbSourceGraphic"
         flood-opacity="0.070588"
         flood-color="rgb(0,0,0)" /><feGaussianBlur
         id="feGaussianBlur46-2"
         result="blur"
         in="fbSourceGraphic"
         stdDeviation="1.000000" /><feOffset
         id="feOffset46-3"
         result="offset"
         in="blur"
         dx="2.000000"
         dy="2.000000" /><feComposite
         id="feComposite46-3"
         result="comp1"
         operator="in"
         in="flood"
         in2="offset" /><feComposite
         id="feComposite47-4"
         result="comp2"
         operator="over"
         in="fbSourceGraphic"
         in2="comp1" /></filter></defs><g
     inkscape:label="Layer 1"
     inkscape:groupmode="layer"
     id="layer1"><rect
       style="fill:#000000;fill-opacity:1;stroke-width:1.82655"
       id="rect50"
       width="1920"
       height="1080"
       x="0"
       y="0" /><g
       inkscape:label="Layer 1"
       id="layer1-8"
       transform="matrix(1.0912082,0,0,1.0912082,48.712251,253.48787)"
       style="filter:url(#filter3)"><path
         style="mix-blend-mode:normal;fill:url(#linearGradient5);stroke-width:2.88393"
         d="m 249.33661,510.89418 c -8.21281,-3.42239 -11.00255,-7.461 -18.99495,-27.49832 -16.37813,-41.06064 -18.29123,-42.19296 -71.30256,-42.20176 -36.39007,-0.005 -43.38134,-0.40848 -54.22489,-3.12114 C 63.852342,427.82578 31.737243,390.78779 26.907097,348.22352 25.322512,334.25984 26.278505,92.650657 27.94615,85.623115 38.614556,40.665928 70.821678,8.6239231 112.66158,1.3420101 c 10.38158,-1.80683502 274.36626,-1.78097802 285.14265,0.02797 43.31545,7.270854 78.50861,42.1928589 86.47326,85.8069439 2.22333,12.174829 2.13762,258.780226 -0.0935,269.325556 -8.69644,41.10168 -38.87026,72.66964 -78.34345,81.96317 -2.56234,0.60328 -5.68893,1.33998 -6.94794,1.63718 -1.25903,0.29715 -20.84993,0.7514 -43.53538,1.00945 -55.94115,0.63635 -58.4748,1.99505 -72.01791,38.62119 -8.11291,21.94066 -10.7658,26.39336 -17.91782,30.07393 -4.73235,2.43533 -11.71631,2.90726 -16.08478,1.08683 z M 277.5691,378.61307 c 62.65962,-7.00773 123.5404,-44.26532 144.44606,-88.39756 16.09294,-33.97257 -17.10795,-51.53825 -37.83455,-20.0172 -56.90715,86.54458 -197.75702,85.74977 -256.16433,-1.44553 -11.48813,-17.15043 -23.3332,-20.31812 -35.401834,-9.46738 -29.797014,26.79008 36.036904,94.68837 110.171784,113.62645 22.88219,5.84536 52.97827,8.13982 74.78287,5.70122 z m -4.31136,-119.41892 c 2.71984,-2.2886 2.99112,-3.35015 3.86248,-15.11411 0.78322,-10.5743 1.69065,-12.07297 9.60537,-15.86361 8.84072,-4.23416 10.57283,-3.68313 22.30761,7.09686 8.77107,8.05742 11.8383,7.48992 25.12421,-4.64843 14.68928,-13.42049 15.34739,-16.91343 5.21605,-27.68316 -8.19717,-8.71362 -8.98146,-10.80003 -6.80922,-18.11469 2.47066,-8.31963 5.50548,-10.24557 16.94122,-10.75112 15.98292,-0.70659 16.96626,-2.0435 16.94106,-23.03166 -0.026,-20.94337 -1.26299,-22.73086 -15.74166,-22.73086 -19.03297,0 -25.35908,-15.06858 -12.14836,-28.936953 10.07196,-10.573356 9.88341,-14.269253 -1.31519,-25.779495 -15.3056,-15.731527 -18.77491,-16.219682 -31.7105,-4.461883 -8.34203,7.582495 -11.72984,8.268752 -19.98695,4.048671 -7.10191,-3.629674 -7.63873,-4.673312 -8.72262,-16.957308 -1.39418,-15.800687 -2.03407,-16.277248 -21.97709,-16.367655 -19.32864,-0.08765 -20.28695,0.658893 -21.14898,16.475197 -0.58575,10.747093 -1.1187,11.940356 -7.08112,15.854111 -7.97755,5.236508 -12.52884,4.698565 -20.76518,-2.454346 C 193.19354,58.78309 190.778,58.386555 182.70805,65.974824 c -22.21219,20.886384 -22.06636,20.350407 -9.20364,33.825331 5.74104,6.014295 6.39556,7.606855 5.80462,14.123825 -0.95726,10.55684 -5.13326,13.7993 -18.54453,14.3989 -15.47642,0.69191 -16.61736,2.43594 -16.21426,24.78494 0.34974,19.3901 1.04596,20.22891 17.41824,20.98531 11.7917,0.5448 13.99742,1.86247 17.30112,10.3355 2.65324,6.80478 1.05969,11.335 -6.63165,18.85266 -11.13932,10.8878 -10.62278,13.5775 5.51712,28.72834 12.35354,11.59649 15.0734,11.72852 25.83684,1.25414 8.61679,-8.38541 11.53871,-9.00664 20.59983,-4.37982 7.90521,4.03654 8.43638,4.98727 9.13596,16.35163 0.98994,16.08112 0.6221,15.81412 21.84545,15.85626 15.37009,0.0305 15.39642,0.0288 17.68459,-1.89769 z m -28.7952,-65.66228 c -32.38444,-8.70928 -41.89181,-49.86901 -16.87019,-73.03517 27.50319,-25.463775 71.72338,-6.03608 71.72338,31.51094 0,28.24407 -27.32323,48.92795 -54.85319,41.52423 z m -129.55778,26.33131 c 14.11147,-3.91854 16.64726,-24.71963 4.05758,-33.28439 -13.44131,-9.14407 -31.517186,3.19099 -28.156318,19.21403 2.357358,11.23877 12.651408,17.24909 24.098738,14.07036 z m 296.63719,-0.0528 c 12.75782,-3.82234 16.20793,-21.01383 6.2214,-31.0004 -11.92068,-11.92064 -31.64845,-2.39179 -30.55636,14.75924 0.77843,12.2249 12.23021,19.86784 24.33496,16.24116 z M 118.13119,134.43451 c 15.82352,-9.77947 9.19427,-34.31363 -9.27173,-34.31363 -15.520158,0 -24.332787,16.1906 -15.88272,29.17977 4.917438,7.55896 17.18083,10.06184 25.15445,5.13386 z m 295.37366,0.31409 c 16.76611,-7.91284 11.62197,-33.30507 -6.98722,-34.49001 -11.3864,-0.725058 -19.42603,6.96437 -19.44481,18.59773 -0.0231,14.29037 13.1035,22.18274 26.43203,15.89228 z"
         id="path1" /><text
         xml:space="preserve"
         style="font-size:19.7556px;font-family:sans-serif;-inkscape-font-specification:'sans-serif, Normal';text-align:start;writing-mode:lr-tb;direction:ltr;text-anchor:start;fill:#ffffff;stroke-width:0.264583"
         x="-458.62106"
         y="128.09366"
         id="text3"><tspan
           sodipodi:role="line"
           id="tspan3"
           style="stroke-width:0.264583"
           x="-458.62106"
           y="128.09366" /></text></g><path
       style="fill:url(#linearGradient9);stroke-width:0.751883;filter:url(#filter3)"
       d="m 1207.2219,517.19757 c -2.1412,-0.89227 -2.8685,-1.94519 -4.9523,-7.16921 -4.27,-10.70509 -4.7687,-11.0003 -18.5895,-11.0026 -9.4875,-10e-4 -11.3102,-0.10644 -14.1372,-0.81373 -10.6794,-2.67158 -19.0523,-12.32792 -20.3115,-23.42504 -0.4132,-3.64052 -0.1639,-66.6315 0.2709,-68.46368 2.7814,-11.72098 11.1782,-20.07479 22.0865,-21.97328 2.7066,-0.47107 71.5312,-0.46434 74.3407,0.007 11.293,1.89562 20.4684,11.00029 22.5449,22.3711 0.5796,3.17415 0.5573,67.46772 -0.024,70.21703 -2.2673,10.7158 -10.1341,18.94601 -20.4253,21.36896 -0.668,0.15729 -1.4832,0.34937 -1.8114,0.42684 -0.3283,0.0775 -5.4359,0.1959 -11.3503,0.26318 -14.5847,0.16591 -15.2452,0.52014 -18.7761,10.0691 -2.1152,5.72025 -2.8068,6.88113 -4.6715,7.8407 -1.2337,0.63493 -3.0546,0.75797 -4.1935,0.28336 z m 7.3606,-34.48758 c 16.3363,-1.82702 32.2088,-11.54061 37.6592,-23.04651 4.1956,-8.85714 -4.4603,-13.43677 -9.864,-5.21877 -14.8365,22.56341 -51.5581,22.35619 -66.7857,-0.37688 -2.9952,-4.47136 -6.0833,-5.29722 -9.2298,-2.46827 -7.7685,6.98455 9.3953,24.68661 28.7234,29.62403 5.9657,1.52398 13.8122,2.12218 19.4969,1.4864 z m -1.124,-31.13422 c 0.7091,-0.59668 0.7798,-0.87343 1.007,-3.94047 0.2042,-2.75687 0.4408,-3.14759 2.5042,-4.13586 2.305,-1.10392 2.7565,-0.96025 5.816,1.85025 2.2867,2.10067 3.0864,1.95272 6.5502,-1.21191 3.8297,-3.49893 4.0013,-4.40958 1.3599,-7.2174 -2.1371,-2.27178 -2.3416,-2.81572 -1.7753,-4.72276 0.6442,-2.16905 1.4354,-2.67116 4.4169,-2.80298 4.1669,-0.18421 4.4233,-0.53277 4.4167,-6.00468 -0.01,-5.46023 -0.3292,-5.92626 -4.104,-5.92626 -4.9622,0 -6.6115,-3.92859 -3.1673,-7.54428 2.6259,-2.75662 2.5768,-3.7202 -0.3429,-6.72108 -3.9904,-4.10143 -4.8949,-4.2287 -8.2674,-1.16327 -2.1749,1.97686 -3.0581,2.15577 -5.2108,1.05554 -1.8516,-0.94631 -1.9916,-1.2184 -2.2742,-4.42101 -0.3634,-4.11947 -0.5303,-4.24372 -5.7297,-4.26729 -5.0392,-0.0229 -5.2891,0.17179 -5.5138,4.29532 -0.1528,2.80193 -0.2917,3.11302 -1.8462,4.1334 -2.0798,1.36523 -3.2664,1.22498 -5.4138,-0.63989 -3.2994,-2.8654 -3.9292,-2.96879 -6.0331,-0.99042 -5.791,5.44538 -5.753,5.30564 -2.3995,8.81875 1.4967,1.56801 1.6674,1.98322 1.5133,3.68228 -0.2496,2.75233 -1.3383,3.59767 -4.8348,3.754 -4.0349,0.18039 -4.3324,0.63509 -4.2273,6.46179 0.091,5.05528 0.2727,5.27397 4.5412,5.47117 3.0743,0.14204 3.6493,0.48557 4.5106,2.69461 0.6918,1.7741 0.2763,2.9552 -1.7289,4.91516 -2.9042,2.83861 -2.7695,3.53984 1.4384,7.48989 3.2207,3.02337 3.9298,3.0578 6.736,0.32697 2.2465,-2.18619 3.0083,-2.34816 5.3707,-1.14187 2.061,1.05238 2.1995,1.30025 2.3818,4.2631 0.2581,4.19257 0.1622,4.12297 5.6955,4.13395 4.0072,0.007 4.014,0.007 4.6106,-0.49475 z m -7.5073,-17.1191 c -8.4431,-2.27064 -10.9218,-13.00156 -4.3983,-19.04132 7.1704,-6.63877 18.6993,-1.57369 18.6993,8.21536 0,7.36363 -7.1236,12.75622 -14.301,10.82596 z m -33.7776,6.86495 c 3.6791,-1.02162 4.3402,-6.44476 1.0579,-8.67772 -3.5044,-2.38399 -8.217,0.83194 -7.3408,5.00937 0.6146,2.93011 3.2984,4.49709 6.2829,3.66835 z m 77.3376,-0.0138 c 3.3261,-0.99654 4.2256,-5.47861 1.622,-8.08225 -3.1079,-3.10788 -8.2512,-0.62357 -7.9665,3.84795 0.2029,3.18721 3.1886,5.17983 6.3445,4.2343 z m -76.4964,-22.2587 c 4.1254,-2.54965 2.3971,-8.94605 -2.4173,-8.94605 -4.0463,0 -6.3439,4.22111 -4.1408,7.60758 1.282,1.97073 4.4792,2.62326 6.5581,1.33847 z m 77.0081,0.0819 c 4.3712,-2.06299 3.03,-8.68311 -1.8217,-8.99205 -2.9685,-0.18903 -5.0646,1.81573 -5.0695,4.8487 -0.01,3.72571 3.4163,5.78337 6.8912,4.14335 z"
       id="path1-1"
       transform="matrix(1.7907007,0,0,1.7907007,-1433.8482,-434.1412)" /><text
       xml:space="preserve"
       style="font-size:92.7363px;font-family:RomanS;-inkscape-font-specification:RomanS;text-align:start;writing-mode:lr-tb;direction:ltr;text-anchor:start;fill:#ffffff;fill-opacity:1;stroke-width:1.242;filter:url(#filter3)"
       x="1273.6925"
       y="479.68143"
       id="text1"
       transform="matrix(1.7907007,0,0,1.7907007,-1433.8482,-434.1412)"><tspan
         sodipodi:role="line"
         id="tspan1"
         x="1273.6925"
         y="479.68143"
         style="font-style:normal;font-variant:normal;font-weight:normal;font-stretch:normal;font-size:92.7363px;font-family:sans-serif;-inkscape-font-specification:'sans-serif, Normal';font-variant-ligatures:normal;font-variant-caps:normal;font-variant-numeric:normal;font-variant-east-asian:normal;fill:#ffffff;fill-opacity:1;stroke-width:1.242">GroupMe.</tspan></text><text
       xml:space="preserve"
       style="font-size:92.7363px;font-family:sans-serif;-inkscape-font-specification:'sans-serif, Normal';text-align:start;writing-mode:lr-tb;direction:ltr;text-anchor:start;fill:url(#linearGradient3);filter:url(#filter3)"
       x="1721.6108"
       y="479.68143"
       id="text2"
       transform="matrix(1.7907007,0,0,1.7907007,-1433.8482,-434.1412)"><tspan
         sodipodi:role="line"
         id="tspan2"
         x="1721.6108"
         y="479.68143"
         style="font-size:92.7363px;fill:url(#linearGradient3)">JS</tspan></text><path
       style="fill:url(#linearGradient3-3);fill-opacity:1;stroke-width:0.751883;filter:url(#filter3)"
       d="m 1287.621,695.71187 c -2.1412,-0.89227 -2.8685,-1.94519 -4.9523,-7.16921 -4.27,-10.70509 -4.7688,-11.0003 -18.5896,-11.0026 -9.4874,-0.001 -11.3101,-0.10644 -14.1372,-0.81373 -10.6793,-2.67158 -19.0522,-12.32792 -20.3115,-23.42504 -0.4131,-3.64052 -0.1639,-66.6315 0.2709,-68.46368 2.7814,-11.72098 11.1783,-20.07479 22.0865,-21.97328 2.7067,-0.47107 71.5313,-0.46434 74.3408,0.007 11.293,1.89562 20.4683,11.00029 22.5448,22.3711 0.5797,3.17415 0.5573,67.46772 -0.024,70.21703 -2.2673,10.7158 -10.134,18.94601 -20.4252,21.36896 -0.6681,0.15729 -1.4832,0.34937 -1.8115,0.42684 -0.3282,0.0775 -5.4358,0.1959 -11.3503,0.26318 -14.5846,0.16591 -15.2452,0.52014 -18.7761,10.0691 -2.1151,5.72025 -2.8068,6.88113 -4.6714,7.8407 -1.2338,0.63493 -3.0546,0.75797 -4.1935,0.28336 z m 7.3606,-34.48758 c 16.3363,-1.82702 32.2087,-11.54061 37.6591,-23.04651 4.1957,-8.85714 -4.4602,-13.43677 -9.864,-5.21877 -14.8365,22.56341 -51.558,22.35619 -66.7857,-0.37688 -2.9951,-4.47136 -6.0833,-5.29722 -9.2297,-2.46827 -7.7685,6.98455 9.3953,24.68661 28.7233,29.62403 5.9657,1.52398 13.8122,2.12218 19.497,1.4864 z m -1.124,-31.13422 c 0.7091,-0.59668 0.7798,-0.87343 1.007,-3.94047 0.2042,-2.75687 0.4407,-3.14759 2.5042,-4.13586 2.3049,-1.10392 2.7565,-0.96025 5.8159,1.85025 2.2868,2.10067 3.0865,1.95272 6.5503,-1.21191 3.8297,-3.49893 4.0013,-4.40958 1.3599,-7.2174 -2.1372,-2.27178 -2.3416,-2.81572 -1.7753,-4.72276 0.6441,-2.16905 1.4354,-2.67116 4.4168,-2.80298 4.167,-0.18421 4.4234,-0.53277 4.4168,-6.00468 -0.01,-5.46023 -0.3293,-5.92626 -4.1041,-5.92626 -4.9621,0 -6.6114,-3.92859 -3.1672,-7.54428 2.6259,-2.75662 2.5767,-3.7202 -0.3429,-6.72108 -3.9904,-4.10143 -4.8949,-4.2287 -8.2674,-1.16327 -2.1749,1.97686 -3.0581,2.15577 -5.2109,1.05554 -1.8515,-0.94631 -1.9915,-1.2184 -2.2741,-4.42101 -0.3635,-4.11947 -0.5303,-4.24372 -5.7297,-4.26729 -5.0393,-0.0229 -5.2891,0.17179 -5.5139,4.29532 -0.1527,2.80193 -0.2916,3.11302 -1.8461,4.1334 -2.0799,1.36523 -3.2665,1.22498 -5.4138,-0.63989 -3.2994,-2.8654 -3.9292,-2.96879 -6.0331,-0.99042 -5.7911,5.44538 -5.7531,5.30564 -2.3996,8.81875 1.4968,1.56801 1.6675,1.98322 1.5134,3.68228 -0.2496,2.75233 -1.3383,3.59767 -4.8348,3.754 -4.035,0.18039 -4.3324,0.63509 -4.2273,6.46179 0.091,5.05528 0.2727,5.27397 4.5412,5.47117 3.0742,0.14204 3.6493,0.48557 4.5106,2.69461 0.6917,1.7741 0.2763,2.9552 -1.729,4.91516 -2.9041,2.83861 -2.7695,3.53984 1.4384,7.48989 3.2208,3.02337 3.9299,3.0578 6.7361,0.32697 2.2465,-2.18619 3.0083,-2.34816 5.3706,-1.14187 2.061,1.05238 2.1995,1.30025 2.3819,4.2631 0.2581,4.19257 0.1622,4.12297 5.6954,4.13395 4.0072,0.007 4.0141,0.007 4.6107,-0.49475 z m -7.5074,-17.1191 c -8.4431,-2.27064 -10.9218,-13.00156 -4.3983,-19.04132 7.1705,-6.63877 18.6993,-1.57369 18.6993,8.21536 0,7.36363 -7.1235,12.75622 -14.301,10.82596 z m -33.7775,6.86495 c 3.679,-1.02162 4.3401,-6.44476 1.0578,-8.67772 -3.5043,-2.38399 -8.2169,0.83194 -7.3407,5.00937 0.6146,2.93011 3.2984,4.49709 6.2829,3.66835 z m 77.3375,-0.0138 c 3.3262,-0.99654 4.2257,-5.47861 1.622,-8.08225 -3.1079,-3.10788 -8.2512,-0.62357 -7.9664,3.84795 0.2029,3.18721 3.1885,5.17983 6.3444,4.2343 z m -76.4964,-22.2587 c 4.1255,-2.54965 2.3971,-8.94605 -2.4172,-8.94605 -4.0463,0 -6.3439,4.22111 -4.1409,7.60758 1.2821,1.97073 4.4793,2.62326 6.5581,1.33847 z m 77.0082,0.0819 c 4.3712,-2.06299 3.03,-8.68311 -1.8217,-8.99205 -2.9686,-0.18903 -5.0646,1.81573 -5.0695,4.8487 -0.01,3.72571 3.4162,5.78337 6.8912,4.14335 z"
       id="path1-6"
       transform="matrix(1.7907007,0,0,1.7907007,-1433.8482,-434.1412)" /><text
       xml:space="preserve"
       style="font-size:92.7363px;font-family:RomanS;-inkscape-font-specification:RomanS;text-align:start;writing-mode:lr-tb;direction:ltr;text-anchor:start;fill:#ffffff;stroke-width:1.242;filter:url(#filter3);fill-opacity:1"
       x="1356.5121"
       y="654.34332"
       id="text1-8"
       transform="matrix(1.7907007,0,0,1.7907007,-1433.8482,-434.1412)"><tspan
         sodipodi:role="line"
         id="tspan1-5"
         x="1356.5121"
         y="654.34332"
         style="font-style:normal;font-variant:normal;font-weight:normal;font-stretch:normal;font-size:92.7363px;font-family:sans-serif;-inkscape-font-specification:'sans-serif, Normal';font-variant-ligatures:normal;font-variant-caps:normal;font-variant-numeric:normal;font-variant-east-asian:normal;fill:#ffffff;fill-opacity:1;stroke-width:1.242">Open</tspan></text><text
       xml:space="preserve"
       style="font-style:normal;font-variant:normal;font-weight:normal;font-stretch:normal;font-size:92.7363px;font-family:sans-serif;-inkscape-font-specification:'sans-serif, Normal';font-variant-ligatures:normal;font-variant-caps:normal;font-variant-numeric:normal;font-variant-east-asian:normal;text-align:start;writing-mode:lr-tb;direction:ltr;text-anchor:start;fill:url(#linearGradient9-2);stroke-width:1.242;filter:url(#filter3)"
       x="1600.4132"
       y="654.25275"
       id="text2-7"
       transform="matrix(1.7907007,0,0,1.7907007,-1433.8482,-434.1412)"><tspan
         sodipodi:role="line"
         id="tspan2-6"
         x="1600.4132"
         y="654.25275"
         style="fill:url(#linearGradient9-2);stroke-width:1.242">GM</tspan></text></g></svg>
