<?xml version="1.0" encoding="UTF-8" standalone="no"?>
<!-- Created with Inkscape (http://www.inkscape.org/) -->

<svg
   width="680"
   height="134"
   viewBox="0 0 680 134"
   version="1.1"
   id="svg1"
   xml:space="preserve"
   inkscape:version="1.4 (86a8ad7, 2024-10-11)"
   sodipodi:docname="groupmejs_logo.svg"
   xmlns:inkscape="http://www.inkscape.org/namespaces/inkscape"
   xmlns:sodipodi="http://sodipodi.sourceforge.net/DTD/sodipodi-0.dtd"
   xmlns:xlink="http://www.w3.org/1999/xlink"
   xmlns="http://www.w3.org/2000/svg"
   xmlns:svg="http://www.w3.org/2000/svg"><sodipodi:namedview
     id="namedview1"
     pagecolor="#505050"
     bordercolor="#eeeeee"
     borderopacity="1"
     inkscape:showpageshadow="0"
     inkscape:pageopacity="0"
     inkscape:pagecheckerboard="0"
     inkscape:deskcolor="#505050"
     inkscape:document-units="px"
     inkscape:zoom="1.0143944"
     inkscape:cx="199.6265"
     inkscape:cy="207.51298"
     inkscape:window-width="3072"
     inkscape:window-height="1796"
     inkscape:window-x="-12"
     inkscape:window-y="-12"
     inkscape:window-maximized="1"
     inkscape:current-layer="g8" /><defs
     id="defs1"><linearGradient
       id="linearGradient4"
       inkscape:collect="always"
       inkscape:label="OpenGM Gradient"><stop
         style="stop-color:#a1e98d;stop-opacity:1;"
         offset="0"
         id="stop4" /><stop
         style="stop-color:#05af76;stop-opacity:1;"
         offset="0.44913614"
         id="stop7" /><stop
         style="stop-color:#0189d6;stop-opacity:1;"
         offset="0.83418918"
         id="stop6" /><stop
         style="stop-color:#1fa7de;stop-opacity:1;"
         offset="1"
         id="stop5" /></linearGradient><linearGradient
       inkscape:collect="always"
       xlink:href="#linearGradient4"
       id="linearGradient3"
       x1="526.51495"
       y1="212.55873"
       x2="595.96368"
       y2="282.00745"
       gradientUnits="userSpaceOnUse" /><linearGradient
       inkscape:collect="always"
       xlink:href="#linearGradient4"
       id="linearGradient9"
       x1="134.05566"
       y1="546.82043"
       x2="218.82179"
       y2="631.58655"
       gradientUnits="userSpaceOnUse"
       gradientTransform="translate(-74.66677,-337.14698)" /></defs><g
     inkscape:label="Layer 1"
     inkscape:groupmode="layer"
     id="layer1"><g
       id="g8"
       transform="translate(2.9372527e-5,-188.99975)"><g
         id="g10"
         transform="translate(-38.232361,3.9432425)"><path
           style="fill:url(#linearGradient9);stroke-width:0.751883"
           d="m 100.03471,318.51123 c -2.141198,-0.89227 -2.868528,-1.94519 -4.952268,-7.16921 -4.27001,-10.70509 -4.76878,-11.0003 -18.589592,-11.0026 -9.48741,-0.001 -11.31014,-0.10644 -14.1372,-0.81373 -10.67935,-2.67158 -19.05222,-12.32792 -20.3115,-23.42504 -0.41312,-3.64052 -0.16388,-66.6315 0.2709,-68.46368 2.7814,-11.72098 11.17826,-20.07479 22.08652,-21.97328 2.70662,-0.47107 71.53121,-0.46434 74.34077,0.007 11.29296,1.89562 20.46832,11.00029 22.54481,22.3711 0.57967,3.17415 0.55731,67.46772 -0.0243,70.21703 -2.26728,10.7158 -10.13404,18.94601 -20.42526,21.36896 -0.66804,0.15729 -1.48319,0.34937 -1.81143,0.42684 -0.32824,0.0775 -5.43587,0.1959 -11.3503,0.26318 -14.58465,0.16591 -15.24521,0.52014 -18.77609,10.0691 -2.11515,5.72025 -2.80681,6.88113 -4.67143,7.8407 -1.23379,0.63493 -3.05462,0.75797 -4.19354,0.28336 z m 7.36062,-34.48758 c 16.33625,-1.82702 32.20874,-11.54061 37.65914,-23.04651 4.19566,-8.85714 -4.46029,-13.43677 -9.864,-5.21877 -14.83651,22.56341 -51.558088,22.35619 -66.78571,-0.37688 -2.99512,-4.47136 -6.0833,-5.29722 -9.22976,-2.46827 -7.76851,6.98455 9.39533,24.68661 28.723362,29.62403 5.9657,1.52398 13.812188,2.12218 19.496968,1.4864 z m -1.12404,-31.13422 c 0.70909,-0.59668 0.77983,-0.87343 1.007,-3.94047 0.2042,-2.75687 0.44078,-3.14759 2.50425,-4.13586 2.30492,-1.10392 2.7565,-0.96025 5.81592,1.85025 2.28674,2.10067 3.08642,1.95272 6.55023,-1.21191 3.82971,-3.49893 4.00129,-4.40958 1.35991,-7.2174 -2.13713,-2.27178 -2.3416,-2.81572 -1.77526,-4.72276 0.64413,-2.16905 1.43535,-2.67116 4.41682,-2.80298 4.16697,-0.18421 4.42334,-0.53277 4.41677,-6.00468 -0.006,-5.46023 -0.32928,-5.92626 -4.10407,-5.92626 -4.96217,0 -6.61148,-3.92859 -3.16725,-7.54428 2.62589,-2.75662 2.57675,-3.7202 -0.34289,-6.72108 -3.99039,-4.10143 -4.89489,-4.2287 -8.26738,-1.16327 -2.1749,1.97686 -3.05815,2.15577 -5.21089,1.05554 -1.85156,-0.94631 -1.99153,-1.2184 -2.27411,-4.42101 -0.36348,-4.11947 -0.53031,-4.24372 -5.72974,-4.26729 -5.039248,-0.0229 -5.289098,0.17179 -5.513848,4.29532 -0.15271,2.80193 -0.29166,3.11302 -1.84614,4.1334 -2.07986,1.36523 -3.26646,1.22498 -5.41378,-0.63989 -3.29943,-2.8654 -3.92919,-2.96879 -6.033152,-0.99042 -5.79103,5.44538 -5.75301,5.30564 -2.39951,8.81875 1.49676,1.56801 1.66741,1.98322 1.51334,3.68228 -0.24957,2.75233 -1.33832,3.59767 -4.83482,3.754 -4.03492,0.18039 -4.33238,0.63509 -4.22729,6.46179 0.0912,5.05528 0.2727,5.27397 4.54118,5.47117 3.07427,0.14204 3.64933,0.48557 4.51065,2.69461 0.69175,1.7741 0.27628,2.9552 -1.72896,4.91516 -2.90419,2.83861 -2.76952,3.53984 1.43839,7.48989 3.220742,3.02337 3.929852,3.0578 6.736042,0.32697 2.24651,-2.18619 3.00829,-2.34816 5.37067,-1.14187 2.06099,1.05238 2.19948,1.30025 2.38186,4.2631 0.25811,4.19257 0.1622,4.12297 5.695428,4.13395 4.0072,0.007 4.01407,0.007 4.61063,-0.49475 z m -7.507318,-17.1191 c -8.4431,-2.27064 -10.9218,-13.00156 -4.39831,-19.04132 7.170478,-6.63877 18.699308,-1.57369 18.699308,8.21536 0,7.36363 -7.12355,12.75622 -14.300998,10.82596 z M 64.9864,242.63528 c 3.67907,-1.02162 4.34017,-6.44476 1.05787,-8.67772 -3.50434,-2.38399 -8.21698,0.83194 -7.34076,5.00937 0.61461,2.93011 3.29841,4.49709 6.28289,3.66835 z m 77.33756,-0.0138 c 3.32615,-0.99654 4.22565,-5.47861 1.62201,-8.08225 -3.1079,-3.10788 -8.25121,-0.62357 -7.96648,3.84795 0.20294,3.18721 3.18858,5.17983 6.34447,4.2343 z m -76.49639,-22.2587 c 4.12542,-2.54965 2.39708,-8.94605 -2.41726,-8.94605 -4.04632,0 -6.34391,4.22111 -4.14085,7.60758 1.28204,1.97073 4.47928,2.62326 6.55811,1.33847 z m 77.00815,0.0819 c 4.37117,-2.06299 3.03001,-8.68311 -1.82168,-8.99205 -2.96859,-0.18903 -5.06463,1.81573 -5.06954,4.8487 -0.006,3.72571 3.41627,5.78337 6.89122,4.14335 z"
           id="path1" /><g
           id="g9"
           transform="translate(104.2844)"><text
             xml:space="preserve"
             style="font-size:92.7363px;font-family:RomanS;-inkscape-font-specification:RomanS;text-align:start;writing-mode:lr-tb;direction:ltr;text-anchor:start;fill:#ffffff;stroke-width:1.242"
             x="62.220894"
             y="280.99509"
             id="text1"><tspan
               sodipodi:role="line"
               id="tspan1"
               x="62.220894"
               y="280.99509"
               style="font-style:normal;font-variant:normal;font-weight:normal;font-stretch:normal;font-size:92.7363px;font-family:sans-serif;-inkscape-font-specification:'sans-serif, Normal';font-variant-ligatures:normal;font-variant-caps:normal;font-variant-numeric:normal;font-variant-east-asian:normal;stroke-width:1.242">GroupMe.</tspan></text><text
             xml:space="preserve"
             style="font-size:92.7363px;font-family:sans-serif;-inkscape-font-specification:'sans-serif, Normal';text-align:start;writing-mode:lr-tb;direction:ltr;text-anchor:start;fill:url(#linearGradient3)"
             x="510.13928"
             y="280.99509"
             id="text2"><tspan
               sodipodi:role="line"
               id="tspan2"
               x="510.13928"
               y="280.99509"
               style="font-size:92.7363px;fill:url(#linearGradient3)">JS</tspan></text></g></g></g></g></svg>
