<?xml version="1.0" encoding="UTF-8" standalone="no"?>
<!-- Created with Inkscape (http://www.inkscape.org/) -->

<svg
   width="512"
   height="134"
   viewBox="0 0 512 134"
   version="1.1"
   id="svg1"
   xml:space="preserve"
   inkscape:version="1.4 (86a8ad7, 2024-10-11)"
   sodipodi:docname="opengm_logo.svg"
   xmlns:inkscape="http://www.inkscape.org/namespaces/inkscape"
   xmlns:sodipodi="http://sodipodi.sourceforge.net/DTD/sodipodi-0.dtd"
   xmlns:xlink="http://www.w3.org/1999/xlink"
   xmlns="http://www.w3.org/2000/svg"
   xmlns:svg="http://www.w3.org/2000/svg"><sodipodi:namedview
     id="namedview1"
     pagecolor="#505050"
     bordercolor="#eeeeee"
     borderopacity="1"
     inkscape:showpageshadow="0"
     inkscape:pageopacity="0"
     inkscape:pagecheckerboard="0"
     inkscape:deskcolor="#505050"
     inkscape:document-units="px"
     inkscape:zoom="1.0143944"
     inkscape:cx="72.94993"
     inkscape:cy="131.60562"
     inkscape:window-width="3072"
     inkscape:window-height="1796"
     inkscape:window-x="-12"
     inkscape:window-y="-12"
     inkscape:window-maximized="1"
     inkscape:current-layer="layer1" /><defs
     id="defs1"><linearGradient
       id="linearGradient4"
       inkscape:collect="always"
       inkscape:label="OpenGM Gradient"><stop
         style="stop-color:#a1e98d;stop-opacity:1;"
         offset="0"
         id="stop4" /><stop
         style="stop-color:#05af76;stop-opacity:1;"
         offset="0.44913614"
         id="stop7" /><stop
         style="stop-color:#0189d6;stop-opacity:1;"
         offset="0.83418918"
         id="stop6" /><stop
         style="stop-color:#1fa7de;stop-opacity:1;"
         offset="1"
         id="stop5" /></linearGradient><linearGradient
       inkscape:collect="always"
       xlink:href="#linearGradient4"
       id="linearGradient3"
       x1="17.555666"
       y1="24.616936"
       x2="102.32179"
       y2="109.38306"
       gradientUnits="userSpaceOnUse" /><linearGradient
       inkscape:collect="always"
       xlink:href="#linearGradient4"
       id="linearGradient9"
       x1="396.08838"
       y1="10.316708"
       x2="492.11267"
       y2="106.34103"
       gradientUnits="userSpaceOnUse" /></defs><g
     inkscape:label="Layer 1"
     inkscape:groupmode="layer"
     id="layer1"><g
       id="g9"><path
         style="fill:url(#linearGradient3);fill-opacity:1;stroke-width:0.751883"
         d="m 58.201484,133.45472 c -2.141202,-0.89227 -2.868532,-1.94519 -4.952267,-7.16921 -4.27001,-10.70509 -4.768786,-11.0003 -18.589596,-11.0026 -9.487408,-0.001 -11.310135,-0.10644 -14.137197,-0.81373 C 9.8430776,111.7976 1.470207,102.14126 0.21092669,91.04414 -0.2022011,87.40362 0.04704426,24.41264 0.48182018,22.58046 3.2632261,10.85948 11.660079,2.50567 22.56834,0.60718 c 2.706624,-0.47107 71.531211,-0.46434 74.340773,0.007 11.292957,1.89562 20.468317,11.00029 22.544807,22.3711 0.57967,3.17415 0.55731,67.46772 -0.0243,70.21703 -2.26728,10.7158 -10.13404,18.94601 -20.425256,21.36896 -0.668037,0.15729 -1.483189,0.34937 -1.811426,0.42684 -0.328249,0.0775 -5.435879,0.1959 -11.350302,0.26318 -14.584654,0.16591 -15.245214,0.52014 -18.776095,10.0691 -2.115145,5.72025 -2.806805,6.88113 -4.671425,7.8407 -1.233797,0.63493 -3.054625,0.75797 -4.193542,0.28336 z M 65.562099,98.96714 C 81.898352,97.14012 97.77084,87.42653 103.22124,75.92063 107.4169,67.06349 98.760953,62.48386 93.357242,70.70186 78.520734,93.26527 41.799157,93.05805 26.57153,70.32498 c -2.995118,-4.47136 -6.083299,-5.29722 -9.229754,-2.46827 -7.7685113,6.98455 9.395325,24.68661 28.723354,29.62403 5.965706,1.52398 13.81219,2.12218 19.496969,1.4864 z M 64.438061,67.83292 c 0.709097,-0.59668 0.779829,-0.87343 1.007004,-3.94047 0.204198,-2.75687 0.440775,-3.14759 2.504253,-4.13586 2.304911,-1.10392 2.756491,-0.96025 5.815919,1.85025 2.286741,2.10067 3.086418,1.95272 6.55023,-1.21191 3.829707,-3.49893 4.00129,-4.40958 1.359908,-7.2174 -2.137129,-2.27178 -2.3416,-2.81572 -1.775259,-4.72276 0.644128,-2.16905 1.435347,-2.67116 4.416815,-2.80298 4.166973,-0.18421 4.423347,-0.53277 4.416777,-6.00468 -0.0062,-5.46023 -0.32928,-5.92626 -4.104078,-5.92626 -4.962166,0 -6.611473,-3.92859 -3.167247,-7.54428 2.625895,-2.75662 2.576749,-3.7202 -0.342892,-6.72108 -3.990385,-4.10143 -4.894887,-4.2287 -8.267375,-1.16327 -2.174898,1.97686 -3.058149,2.15577 -5.21089,1.05554 -1.851567,-0.94631 -1.991528,-1.2184 -2.274109,-4.42101 -0.363485,-4.11947 -0.530311,-4.24372 -5.72974,-4.26729 -5.039257,-0.0229 -5.289099,0.17179 -5.513852,4.29532 -0.152716,2.80193 -0.291659,3.11302 -1.846139,4.1334 -2.07986,1.36523 -3.266458,1.22498 -5.413784,-0.63989 -3.299433,-2.8654 -3.929191,-2.96879 -6.033146,-0.99042 -5.79103,5.44538 -5.753012,5.30564 -2.399514,8.81875 1.496763,1.56801 1.667415,1.98322 1.513344,3.68228 -0.249568,2.75233 -1.338321,3.59767 -4.834823,3.754 -4.034924,0.18039 -4.332384,0.63509 -4.227285,6.46179 0.09116,5.05528 0.272694,5.27397 4.541176,5.47117 3.074271,0.14204 3.649331,0.48557 4.510648,2.69461 0.691747,1.7741 0.276284,2.9552 -1.728956,4.91516 -2.904191,2.83861 -2.76952,3.53984 1.43839,7.48989 3.220739,3.02337 3.929849,3.0578 6.736033,0.32697 2.246512,-2.18619 3.008295,-2.34816 5.370674,-1.14187 2.060994,1.05238 2.199477,1.30025 2.381865,4.2631 0.258101,4.19257 0.162194,4.12297 5.695421,4.13395 4.007204,0.007 4.014072,0.007 4.610632,-0.49475 z M 56.93074,50.71382 C 48.487647,48.44318 46.008942,37.71226 52.532431,31.6725 c 7.170487,-6.63877 18.699317,-1.57369 18.699317,8.21536 0,7.36363 -7.123551,12.75622 -14.301008,10.82596 z m -33.777565,6.86495 c 3.679064,-1.02162 4.34017,-6.44476 1.057864,-8.67772 -3.504339,-2.38399 -8.216974,0.83194 -7.340753,5.00937 0.614606,2.93011 3.298403,4.49709 6.282889,3.66835 z m 77.337555,-0.0138 c 3.32615,-0.99654 4.22565,-5.47861 1.62201,-8.08225 -3.107895,-3.10788 -8.251207,-0.62357 -7.966478,3.84795 0.202944,3.18721 3.188585,5.17983 6.344468,4.2343 z M 23.994347,35.30627 c 4.125415,-2.54965 2.39708,-8.94605 -2.417263,-8.94605 -4.046325,0 -6.343908,4.22111 -4.140854,7.60758 1.282046,1.97073 4.479288,2.62326 6.558117,1.33847 z m 77.008143,0.0819 c 4.37117,-2.06299 3.03001,-8.68311 -1.821678,-8.99205 -2.968588,-0.18903 -5.064631,1.81573 -5.069537,4.8487 -0.0062,3.72571 3.416269,5.78337 6.891215,4.14335 z"
         id="path1" /><text
         xml:space="preserve"
         style="font-size:92.7363px;font-family:RomanS;-inkscape-font-specification:RomanS;text-align:start;writing-mode:lr-tb;direction:ltr;text-anchor:start;fill:#ffffff;stroke-width:1.242"
         x="127.09258"
         y="92.086159"
         id="text1"><tspan
           sodipodi:role="line"
           id="tspan1"
           x="127.09258"
           y="92.086159"
           style="font-style:normal;font-variant:normal;font-weight:normal;font-stretch:normal;font-size:92.7363px;font-family:sans-serif;-inkscape-font-specification:'sans-serif, Normal';font-variant-ligatures:normal;font-variant-caps:normal;font-variant-numeric:normal;font-variant-east-asian:normal;stroke-width:1.242">Open</tspan></text><text
         xml:space="preserve"
         style="font-style:normal;font-variant:normal;font-weight:normal;font-stretch:normal;font-size:92.7363px;font-family:sans-serif;-inkscape-font-specification:'sans-serif, Normal';font-variant-ligatures:normal;font-variant-caps:normal;font-variant-numeric:normal;font-variant-east-asian:normal;text-align:start;writing-mode:lr-tb;direction:ltr;text-anchor:start;fill:url(#linearGradient9);stroke-width:1.242"
         x="370.99371"
         y="91.995583"
         id="text2"><tspan
           sodipodi:role="line"
           id="tspan2"
           x="370.99371"
           y="91.995583"
           style="stroke-width:1.242;fill:url(#linearGradient9)">GM</tspan></text></g></g></svg>
