<?xml version="1.0" encoding="UTF-8" standalone="no"?>
<!-- Created with Inkscape (http://www.inkscape.org/) -->

<svg
   width="210mm"
   height="297mm"
   viewBox="0 0 210 297"
   version="1.1"
   id="svg1"
   xml:space="preserve"
   inkscape:version="1.4 (86a8ad7, 2024-10-11)"
   sodipodi:docname="opengm_logo_single.svg"
   xmlns:inkscape="http://www.inkscape.org/namespaces/inkscape"
   xmlns:sodipodi="http://sodipodi.sourceforge.net/DTD/sodipodi-0.dtd"
   xmlns="http://www.w3.org/2000/svg"
   xmlns:svg="http://www.w3.org/2000/svg"><sodipodi:namedview
     id="namedview1"
     pagecolor="#505050"
     bordercolor="#eeeeee"
     borderopacity="1"
     inkscape:showpageshadow="0"
     inkscape:pageopacity="0"
     inkscape:pagecheckerboard="0"
     inkscape:deskcolor="#505050"
     inkscape:document-units="mm"
     inkscape:zoom="0.46268225"
     inkscape:cx="206.40515"
     inkscape:cy="547.89221"
     inkscape:window-width="3072"
     inkscape:window-height="1796"
     inkscape:window-x="-12"
     inkscape:window-y="-12"
     inkscape:window-maximized="1"
     inkscape:current-layer="layer1" /><defs
     id="defs1" /><g
     inkscape:label="Layer 1"
     inkscape:groupmode="layer"
     id="layer1"><path
       style="fill:#ffffff;fill-opacity:1;stroke-width:1.62238"
       d="m 102.40157,259.18711 c -1.59491,-0.4842 -3.55,-1.96327 -4.718161,-3.56939 -1.256662,-1.7278 -1.968816,-3.18671 -5.8187,-11.9201 -5.951493,-13.50086 -6.8344,-13.90824 -30.704226,-14.16701 C 44.504071,229.35004 43.189191,229.29279 40.698512,228.63956 22.152161,223.77544 9.1389939,210.06752 5.7204427,191.79408 4.7761987,186.74673 4.7524876,81.16739 5.6944846,76.175634 9.3814329,56.637894 24.587742,41.381065 43.653359,38.090651 c 4.471037,-0.771628 118.214051,-0.767053 122.977791,0.005 18.85494,3.055577 34.04012,18.20879 37.72324,37.643825 0.92186,4.864482 0.82849,112.314515 -0.10154,116.799415 -3.94016,19.00149 -18.86067,33.56743 -37.62174,36.72768 -1.38576,0.2334 -7.83486,0.34773 -17.9526,0.31826 -24.20678,-0.0706 -24.75676,0.22387 -32.07312,17.1721 -3.89586,9.02468 -4.92482,10.57459 -8.01257,12.06934 -1.44837,0.70115 -4.48712,0.87827 -6.19127,0.36086 z m 15.81954,-56.70558 c 32.91642,-4.95132 67.75619,-33.61057 59.67202,-49.08634 -3.96855,-7.59714 -12.30514,-6.73247 -17.0779,1.77133 -21.34008,38.02245 -90.795905,37.5259 -112.307113,-0.80288 -7.969844,-14.20071 -22.945012,-2.88206 -15.281418,11.55011 13.396321,25.22813 51.472925,41.61011 84.994411,36.56778 z m -6.82179,-49.30104 c 2.1585,-1.26677 2.66259,-2.4527 2.6647,-6.26897 0.003,-5.35311 0.77919,-7.04105 3.99073,-8.6779 4.15356,-2.11702 5.31682,-1.83927 9.64551,2.303 5.03039,4.81375 5.48696,4.75726 11.69822,-1.44756 6.32596,-6.3194 6.63222,-7.77114 2.53662,-12.02458 -3.62629,-3.76607 -3.91746,-4.20032 -3.91746,-5.84256 0,-2.37634 1.44379,-4.76309 4.1007,-6.77895 0.37546,-0.28487 2.01329,-0.55347 4.29141,-0.70382 10.4639,-0.69051 10.34516,-19.596906 -0.12313,-19.596906 -3.8927,0 -5.97867,-1.250797 -7.48671,-4.489231 -1.5916,-3.4178 -1.19006,-4.713866 2.75077,-8.878779 4.46408,-4.717918 4.3131,-5.926332 -1.45409,-11.638058 -6.56002,-6.496923 -7.12245,-6.560445 -12.43186,-1.404059 -4.27591,4.152665 -5.26075,4.398324 -9.54318,2.380459 -3.23544,-1.524524 -3.80383,-2.605513 -4.0445,-7.691983 -0.33187,-7.012936 -1.00514,-7.538039 -9.66369,-7.536958 -8.368936,0.0011 -9.29432,0.762867 -9.308697,7.663364 -0.0093,4.628366 -0.62467,5.955298 -3.485116,7.519298 -3.977931,2.175002 -5.381569,1.824153 -9.498084,-2.37412 -4.41577,-4.503473 -6.03817,-4.713039 -9.745083,-1.258775 -8.958199,8.347649 -9.355547,9.60832 -4.586894,14.552868 4.263114,4.420358 4.54932,5.436858 2.595303,9.217503 -1.514516,2.930291 -3.283188,3.9166 -7.061723,3.938004 -6.013312,0.03407 -6.949427,1.29563 -7.09066,9.555783 -0.150673,8.81249 0.445887,9.67881 6.928159,10.061 4.070198,0.24 5.156969,0.78632 7.038168,3.53817 2.37828,3.47898 2.076907,4.92695 -1.901672,9.13657 -4.949431,5.23684 -4.83637,6.1222 1.602317,12.54763 6.236088,6.22325 6.899995,6.31895 11.754495,1.6943 4.185843,-3.98762 5.34832,-4.35238 8.785467,-2.75673 3.891669,1.80665 4.65783,3.15427 4.658523,8.19392 7.69e-4,6.97056 1.2554,7.93701 10.147287,7.81776 4.35899,-0.0587 5.13799,-0.15334 6.1541,-0.74969 z m -9.91213,-28.79524 C 84.762101,121.86454 78.152606,101.78601 90.10934,89.821272 c 9.806215,-9.812788 26.33549,-7.361416 32.82722,4.868438 7.94622,14.96995 -4.5319,32.24524 -21.44937,29.69554 z m 7.68379,-7.28923 c 7.09879,-2.19259 11.0685,-9.64688 8.89127,-16.69594 -3.1439,-10.178777 -16.23239,-13.289068 -23.450226,-5.572613 -9.775277,10.450563 0.741439,26.536343 14.558956,22.268553 z m -65.081969,15.82876 c 3.198567,-1.48924 4.916747,-5.13247 4.113418,-8.72213 -2.051243,-9.16591 -15.742576,-7.98111 -15.737524,1.36188 0.0034,6.25863 5.930083,10.01135 11.624106,7.36025 z m 129.032919,0.19006 c 4.7913,-2.17666 6.03025,-8.95176 2.37178,-12.97002 -3.08373,-3.38697 -9.67849,-2.93409 -12.27766,0.84314 -4.75746,6.91378 2.31702,15.57442 9.90588,12.12688 z M 42.811799,96.954157 c 3.587967,-1.065512 6.120693,-4.989716 5.526988,-8.563508 -1.62388,-9.774909 -15.970869,-8.976776 -15.929798,0.886187 0.02427,5.822653 4.7942,9.342899 10.40281,7.677321 z m 129.207051,0.123967 c 5.87094,-1.758982 7.50562,-9.7555 2.81499,-13.770496 -5.33246,-4.564394 -13.16068,-0.985683 -13.18612,6.028109 -0.02,5.553184 5.04848,9.337087 10.37113,7.742387 z"
       id="path1" /><text
       xml:space="preserve"
       style="font-size:11.2889px;text-align:start;writing-mode:lr-tb;direction:ltr;text-anchor:start;fill:#ffffff;stroke-width:0.264583"
       x="36.312271"
       y="17.01244"
       id="text1"><tspan
         sodipodi:role="line"
         id="tspan1"
         style="stroke-width:0.264583"
         x="36.312271"
         y="17.01244" /></text></g></svg>
