<?xml version="1.0" encoding="UTF-8" standalone="no"?>
<!-- Created with Inkscape (http://www.inkscape.org/) -->

<svg
   width="100mm"
   height="100mm"
   viewBox="0 0 100 100"
   version="1.1"
   id="svg1"
   xml:space="preserve"
   inkscape:version="1.4 (86a8ad7, 2024-10-11)"
   sodipodi:docname="sprocket_colorized.svg"
   xmlns:inkscape="http://www.inkscape.org/namespaces/inkscape"
   xmlns:sodipodi="http://sodipodi.sourceforge.net/DTD/sodipodi-0.dtd"
   xmlns:xlink="http://www.w3.org/1999/xlink"
   xmlns="http://www.w3.org/2000/svg"
   xmlns:svg="http://www.w3.org/2000/svg"><sodipodi:namedview
     id="namedview1"
     pagecolor="#505050"
     bordercolor="#eeeeee"
     borderopacity="1"
     inkscape:showpageshadow="0"
     inkscape:pageopacity="0"
     inkscape:pagecheckerboard="0"
     inkscape:deskcolor="#505050"
     inkscape:document-units="mm"
     inkscape:zoom="0.46268224"
     inkscape:cx="882.89535"
     inkscape:cy="958.54122"
     inkscape:window-width="1636"
     inkscape:window-height="1782"
     inkscape:window-x="1412"
     inkscape:window-y="0"
     inkscape:window-maximized="0"
     inkscape:current-layer="layer1" /><defs
     id="defs1"><linearGradient
       id="linearGradient4"
       inkscape:collect="always"
       inkscape:label="OpenGM Gradient"><stop
         style="stop-color:#a1e98d;stop-opacity:1;"
         offset="0"
         id="stop4" /><stop
         style="stop-color:#05af76;stop-opacity:1;"
         offset="0.44913614"
         id="stop7" /><stop
         style="stop-color:#0189d6;stop-opacity:1;"
         offset="0.83418918"
         id="stop6" /><stop
         style="stop-color:#1fa7de;stop-opacity:1;"
         offset="1"
         id="stop5" /></linearGradient><linearGradient
       inkscape:collect="always"
       xlink:href="#linearGradient4"
       id="linearGradient5"
       x1="93.434853"
       y1="93.43486"
       x2="418.56512"
       y2="418.56516"
       gradientUnits="userSpaceOnUse"
       gradientTransform="matrix(0.1953125,0,0,0.1953125,2.1220177e-6,3.9358416e-7)" /></defs><g
     inkscape:label="Layer 1"
     inkscape:groupmode="layer"
     id="layer1"><path
       style="mix-blend-mode:normal;fill:url(#linearGradient5);stroke-width:0.563268"
       d="M 48.698559,99.78402 C 47.094494,99.115584 46.549623,98.326793 44.988608,94.413254 41.789754,86.393598 41.416102,86.172442 31.062326,86.170723 23.954891,86.169746 22.589408,86.090942 20.471527,85.561125 12.471163,83.559723 6.1986821,76.325741 5.2552941,68.012407 4.9458051,65.285125 5.1325231,18.095832 5.4582341,16.723265 7.5419071,7.9425645 13.832361,1.6843604 22.004217,0.26211175 c 2.027652,-0.35289747 53.58716,-0.34784727 55.691924,0.005463 8.460051,1.42008865 15.333711,8.24079275 16.889311,16.75916825 0.43424,2.377896 0.4175,50.543013 -0.0183,52.602648 -1.69853,8.027672 -7.59185,14.193289 -15.30146,16.008432 -0.500456,0.117828 -1.111118,0.261714 -1.357019,0.319761 -0.245904,0.05804 -4.072252,0.146758 -8.503004,0.197159 -10.926006,0.124287 -11.420859,0.389658 -14.065998,7.543201 -1.584553,4.285285 -2.102695,5.154953 -3.499574,5.873814 -0.924287,0.475652 -2.288342,0.567822 -3.141559,0.212272 z M 54.212717,73.947866 C 66.450924,72.579168 78.341701,65.302295 82.424842,56.682717 85.567992,50.047449 79.083442,46.616653 75.035278,52.773108 63.9206,69.676346 36.41086,69.52111 25.003182,52.490778 22.759406,49.141084 20.445916,48.522395 18.088761,50.64168 c -5.819729,5.232437 7.038458,18.493822 21.517927,22.192666 4.469177,1.141672 10.347318,1.589809 14.606029,1.11352 z M 53.370655,50.623858 c 0.531218,-0.446993 0.584203,-0.654327 0.75439,-2.951975 0.152973,-2.065293 0.330205,-2.358002 1.876049,-3.098361 1.726703,-0.826985 2.065006,-0.719362 4.356955,1.386105 1.7131,1.573715 2.312168,1.462875 4.907072,-0.907896 2.869,-2.62119 2.997537,-3.303405 1.01876,-5.406868 -1.60101,-1.701878 -1.754191,-2.10938 -1.329926,-3.538025 0.482551,-1.624928 1.075289,-2.001088 3.308832,-2.099828 3.121664,-0.138006 3.313723,-0.399121 3.308801,-4.498371 -0.0051,-4.090502 -0.246678,-4.439621 -3.074543,-4.439621 -3.717377,0 -4.952945,-2.943082 -2.372726,-5.651749 1.967179,-2.065109 1.930353,-2.786963 -0.256873,-5.035058 -2.989375,-3.072563 -3.666975,-3.167906 -6.193457,-0.871461 -1.629303,1.480956 -2.290985,1.614991 -3.903702,0.790756 -1.387091,-0.708921 -1.491939,-0.912756 -1.703636,-3.311974 -0.272301,-3.0860716 -0.39728,-3.17915 -4.292401,-3.1968076 -3.775125,-0.017119 -3.962295,0.1286901 -4.13066,3.2178116 -0.114404,2.099042 -0.218496,2.332101 -1.383031,3.096506 -1.558115,1.022756 -2.447039,0.917689 -4.055699,-0.479364 -2.471745,-2.146606 -2.94353,-2.224054 -4.519692,-0.74197 -4.338318,4.079372 -4.309836,3.974689 -1.797586,6.60651 1.121297,1.174667 1.249133,1.485714 1.133715,2.758559 -0.186965,2.061883 -1.00259,2.695176 -3.621979,2.812286 -3.022738,0.135138 -3.245578,0.475769 -3.166847,4.840808 0.06831,3.787129 0.204289,3.950959 3.402,4.098694 2.303066,0.106406 2.733871,0.363763 3.379125,2.018652 0.518211,1.329059 0.206971,2.213867 -1.295244,3.68216 -2.175649,2.126524 -2.074762,2.651856 1.077562,5.611004 2.412801,2.26494 2.944024,2.290727 5.046258,0.244949 1.682967,-1.637775 2.253654,-1.759109 4.023404,-0.855433 1.543987,0.788386 1.647731,0.974076 1.784368,3.193677 0.193347,3.140844 0.121503,3.088696 4.266689,3.096926 3.001971,0.006 3.007113,0.0056 3.454022,-0.370642 z M 47.746592,37.799194 c -6.325086,-1.701032 -8.181994,-9.740041 -3.294959,-14.264682 5.371717,-4.973394 14.008473,-1.178922 14.008473,6.15448 0,5.51642 -5.336569,9.556241 -10.713514,8.110202 z m -25.304254,5.142834 c 2.756146,-0.76534 3.251418,-4.828053 0.792496,-6.500858 -2.625256,-1.785951 -6.1557,0.62324 -5.499281,3.75274 0.460422,2.195073 2.470978,3.368963 4.706785,2.748118 z m 57.936954,-0.01031 c 2.49176,-0.746551 3.16561,-4.104264 1.21511,-6.054766 -2.32825,-2.32825 -6.181333,-0.467146 -5.968035,2.882664 0.152038,2.387676 2.388713,3.880438 4.752925,3.172102 z M 23.0725,26.25674 c 3.090531,-1.910052 1.795756,-6.70188 -1.810885,-6.70188 -3.031281,0 -4.752497,3.162226 -3.102093,5.699173 0.960437,1.47636 3.35563,1.965203 4.912978,1.002707 z m 57.690172,0.06135 c 3.27463,-1.545476 2.26991,-6.504896 -1.3647,-6.73633 -2.223901,-0.141613 -3.794142,1.360229 -3.79781,3.632369 -0.0045,2.791088 2.559278,4.332567 5.16251,3.103961 z"
       id="path1" /><text
       xml:space="preserve"
       style="font-size:19.7556px;font-family:sans-serif;-inkscape-font-specification:'sans-serif, Normal';text-align:start;writing-mode:lr-tb;direction:ltr;text-anchor:start;fill:#ffffff;stroke-width:0.264583"
       x="-458.62106"
       y="128.09366"
       id="text3"><tspan
         sodipodi:role="line"
         id="tspan3"
         style="stroke-width:0.264583"
         x="-458.62106"
         y="128.09366" /></text></g></svg>
