<?xml version="1.0" encoding="UTF-8" standalone="no"?>
<!-- Created with Inkscape (http://www.inkscape.org/) -->

<svg
   width="210mm"
   height="297mm"
   viewBox="0 0 210 297"
   version="1.1"
   id="svg1"
   xml:space="preserve"
   inkscape:version="1.4 (86a8ad7, 2024-10-11)"
   sodipodi:docname="opengm_logo_single.svg"
   xmlns:inkscape="http://www.inkscape.org/namespaces/inkscape"
   xmlns:sodipodi="http://sodipodi.sourceforge.net/DTD/sodipodi-0.dtd"
   xmlns="http://www.w3.org/2000/svg"
   xmlns:svg="http://www.w3.org/2000/svg"><sodipodi:namedview
     id="namedview1"
     pagecolor="#505050"
     bordercolor="#eeeeee"
     borderopacity="1"
     inkscape:showpageshadow="0"
     inkscape:pageopacity="0"
     inkscape:pagecheckerboard="0"
     inkscape:deskcolor="#505050"
     inkscape:document-units="mm"
     inkscape:zoom="3.701458"
     inkscape:cx="268.0025"
     inkscape:cy="194.92319"
     inkscape:window-width="3072"
     inkscape:window-height="1796"
     inkscape:window-x="-12"
     inkscape:window-y="-12"
     inkscape:window-maximized="1"
     inkscape:current-layer="layer1" /><defs
     id="defs1" /><g
     inkscape:label="Layer 1"
     inkscape:groupmode="layer"
     id="layer1"><path
       style="fill:#ffffff;stroke-width:0.243357;fill-opacity:1"
       d="m 14.610236,33.250927 c -0.239237,-0.07263 -0.5325,-0.294491 -0.707724,-0.535408 -0.1885,-0.25917 -0.295323,-0.478007 -0.872806,-1.788016 C 12.136982,28.902374 12.004546,28.841267 8.4240725,28.802451 5.9256106,28.775366 5.7283786,28.766778 5.3547767,28.668795 2.5728241,27.939176 0.62084901,25.882987 0.10806631,23.141972 -0.03357029,22.38487 -0.03712696,6.5479683 0.1041726,5.7992048 0.65721486,2.8685438 2.9381612,0.5800194 5.7980038,0.08645728 c 0.6706556,-0.11574412 17.7321082,-0.11505786 18.4466682,7.544e-4 2.828242,0.45833665 5.106019,2.73131852 5.658487,5.64657382 0.13828,0.7296724 0.124273,16.8471775 -0.01523,17.5199115 -0.591025,2.850224 -2.829102,5.035115 -5.643262,5.509153 -0.207864,0.03501 -1.175229,0.05216 -2.69289,0.04774 -3.631017,-0.01059 -3.713515,0.03358 -4.810968,2.575815 -0.584379,1.353701 -0.738723,1.586188 -1.201886,1.8104 -0.217255,0.105172 -0.673068,0.131741 -0.92869,0.05413 z m 2.372931,-8.505837 c 4.937463,-0.742699 10.163428,-5.041586 8.950803,-7.362951 -0.595283,-1.139572 -1.845771,-1.009872 -2.561685,0.2657 C 20.171273,23.351206 9.7528988,23.276724 6.5262176,17.527406 5.3307408,15.3973 3.0844657,17.095096 4.2340048,19.259922 6.243453,23.044142 11.954944,25.501439 16.983167,24.74509 Z m -1.023269,-7.395157 c 0.323775,-0.190016 0.399388,-0.367905 0.399705,-0.940345 4.86e-4,-0.802967 0.116879,-1.056158 0.59861,-1.301686 0.623033,-0.317552 0.797523,-0.275889 1.446827,0.34545 0.754558,0.722063 0.823044,0.71359 1.754732,-0.217133 0.948894,-0.94791 0.994833,-1.165671 0.380494,-1.803688 -0.543945,-0.56491 -0.58762,-0.630047 -0.58762,-0.876383 0,-0.356451 0.216569,-0.714463 0.615105,-1.016843 0.05632,-0.04273 0.301994,-0.08302 0.643712,-0.105572 1.569586,-0.103577 1.551774,-2.9395366 -0.01847,-2.9395366 -0.583904,0 -0.896799,-0.1876195 -1.123006,-0.6733847 -0.23874,-0.51267 -0.178509,-0.7070798 0.412616,-1.3318169 C 21.152215,5.7813071 21.129568,5.6000451 20.264489,4.7432861 19.280486,3.7687476 19.196121,3.7592194 18.39971,4.5326772 17.758323,5.1555771 17.610598,5.192426 16.968232,4.8897461 16.482917,4.6610676 16.397659,4.4989192 16.361557,3.7359486 16.311778,2.6840082 16.210787,2.6052427 14.912004,2.605405 c -1.25534,1.565e-4 -1.394148,0.11443 -1.396305,1.1495046 -0.0014,0.6942549 -0.0937,0.8932946 -0.522767,1.1278947 C 12.396243,5.2090546 12.185697,5.1564272 11.56822,4.5266862 10.905854,3.8511654 10.662494,3.8197305 10.106457,4.33787 8.7627272,5.5900175 8.7031249,5.7791181 9.418423,6.5208002 10.05789,7.183854 10.100821,7.336329 9.8077184,7.9034257 9.580541,8.3429695 9.3152402,8.4909157 8.7484599,8.4941265 c -0.9019968,0.00511 -1.042414,0.1943444 -1.063599,1.433368 -0.022601,1.3218725 0.066883,1.4518205 1.0392239,1.5091495 0.6105296,0.036 0.7735454,0.117947 1.0557252,0.530725 0.356742,0.521848 0.311536,0.739044 -0.2852508,1.370486 -0.7424146,0.785526 -0.7254555,0.91833 0.2403475,1.882144 0.9354133,0.933487 1.0349993,0.947843 1.7631743,0.254146 0.627876,-0.598143 0.802248,-0.652857 1.31782,-0.41351 0.58375,0.270997 0.698675,0.47314 0.698779,1.229088 1.44e-4,1.045584 0.188309,1.190552 1.522093,1.172663 0.653848,-0.0088 0.770698,-0.023 0.923115,-0.112453 z m -1.48682,-4.319285 C 11.964315,12.652541 10.972891,9.6407615 12.766401,7.8460506 14.237333,6.3741324 16.716725,6.7418382 17.690485,8.5763163 18.882417,10.821809 17.0107,13.413103 14.473078,13.030648 Z m 1.152569,-1.093385 c 1.064819,-0.328888 1.660276,-1.447032 1.33369,-2.5043917 C 16.487752,7.9060552 14.52448,7.4395116 13.441804,8.5969798 11.975512,10.164565 13.55302,12.577432 15.625647,11.937263 Z m -9.7622954,2.374313 c 0.4797851,-0.223385 0.7375121,-0.76987 0.6170128,-1.308318 -0.3076865,-1.374887 -2.3613865,-1.197167 -2.3606287,0.204282 5.111e-4,0.938794 0.8895124,1.501701 1.7436159,1.104036 z m 19.3549384,0.02851 c 0.718695,-0.326498 0.904538,-1.342765 0.355767,-1.945503 -0.462559,-0.508045 -1.451774,-0.440113 -1.841649,0.126471 -0.713619,1.037067 0.347553,2.336164 1.485882,1.819032 z M 5.6717698,8.9159834 C 6.2099648,8.7561566 6.5898737,8.167526 6.5008181,7.6314572 6.257236,6.1652207 4.1051876,6.2849407 4.1113484,7.7643852 c 0.00364,0.873398 0.71913,1.4014349 1.5604214,1.1515982 z m 19.3810572,0.018595 c 0.880642,-0.2638473 1.125844,-1.463325 0.422249,-2.0655744 -0.799869,-0.6846591 -1.974101,-0.1478524 -1.977917,0.9042163 -0.003,0.8329776 0.757272,1.4005632 1.555668,1.1613581 z"
       id="path1" /><text
       xml:space="preserve"
       style="font-size:11.2889px;text-align:start;writing-mode:lr-tb;direction:ltr;text-anchor:start;fill:#ffffff;stroke-width:0.264583"
       x="36.312271"
       y="17.01244"
       id="text1"><tspan
         sodipodi:role="line"
         id="tspan1"
         style="stroke-width:0.264583"
         x="36.312271"
         y="17.01244" /></text></g></svg>
